<?xml version="1.0" encoding="utf-8"?>
<!-- Generator: Adobe Illustrator 27.7.0, SVG Export Plug-In . SVG Version: 6.00 Build 0)  -->
<svg version="1.1" id="Glyph" xmlns="http://www.w3.org/2000/svg" xmlns:xlink="http://www.w3.org/1999/xlink" x="0px" y="0px"
	 viewBox="0 0 48 48" enable-background="new 0 0 48 48" xml:space="preserve">
<g>
	<path d="M20.7793,32.9541c-0.67615-0.3504-1.36536-0.62744-2.05945-0.86945C17.573,33.40802,15.88452,34.25,14,34.25
		c-1.88458,0-3.573-0.84198-4.71985-2.16541c-0.69421,0.242-1.38361,0.51904-2.05994,0.86951
		C6.00488,33.58594,5.25,34.85254,5.25,36.26074V40.75h3V37h1.5v3.75h8.5V37h1.5v3.75h3v-4.49023
		C22.75,34.85254,21.99512,33.58594,20.7793,32.9541z"/>
	<circle cx="14" cy="28" r="4.75"/>
	<circle cx="34" cy="28" r="4.75"/>
	<path d="M40.7793,32.9541c-0.67615-0.35046-1.36536-0.6275-2.05945-0.86951C37.573,33.40802,35.88458,34.25,34,34.25
		s-3.57306-0.84204-4.71991-2.16547c-0.6944,0.24207-1.38385,0.5191-2.06036,0.86957
		C26.00488,33.58594,25.25,34.85254,25.25,36.25977V40.75h3V37h1.5v3.75h8.5V37h1.5v3.75h3v-4.48926
		C42.75,34.85254,41.99512,33.58594,40.7793,32.9541z"/>
	<path d="M30.56,13.41998c0-0.51001-0.40002-0.91998-0.89001-0.91998c-0.23999,0-0.46997,0.08997-0.63995,0.26996L28.5,13.31
		l-0.53003-0.54004C27.79999,12.58997,27.57001,12.5,27.33002,12.5c-0.48999,0-0.89001,0.40997-0.89001,0.91998
		c0,1.27002,1.42999,2.15997,2.06,2.5C29.13,15.57996,30.56,14.69,30.56,13.41998z"/>
	<path d="M30.95001,20.28998l2.63,0.83002l0.07001-2.77002C34.67999,17.13,35.25,15.59998,35.25,14
		c0-3.72003-3.03003-6.75-6.75-6.75s-6.75,3.02997-6.75,6.75c0,3.71997,3.03003,6.75,6.75,6.75
		C29.34003,20.75,30.16998,20.58997,30.95001,20.28998z M24.94,13.41998C24.94,12.07996,26.01001,11,27.33002,11
		C27.75,11,28.15002,11.09998,28.5,11.29999C28.84998,11.09998,29.25,11,29.66998,11c1.32001,0,2.39001,1.07996,2.39001,2.41998
		c0,2.62-3.14001,3.97003-3.27002,4.02002L28.5,17.56l-0.28998-0.12C28.08002,17.39001,24.94,16.03998,24.94,13.41998z"/>
	<path d="M14.41504,21.11426l2.62842-0.82617C17.82129,20.59473,18.64648,20.75,19.5,20.75
		c1.1485,0,2.26263-0.30121,3.24957-0.84613C21.21033,18.4043,20.25,16.31342,20.25,14c0-2.3136,0.96027-4.40442,2.49945-5.90393
		C21.76257,7.55121,20.64844,7.25,19.5,7.25c-3.72217,0-6.75,3.02783-6.75,6.75c0,1.5918,0.56494,3.12549,1.59668,4.35059
		L14.41504,21.11426z M17.25,13.25h1.5v1.5h-1.5V13.25z M14.25,13.25h1.5v1.5h-1.5V13.25z"/>
</g>
</svg>
