<?xml version="1.0" encoding="utf-8"?>
<!-- Generator: Adobe Illustrator 27.7.0, SVG Export Plug-In . SVG Version: 6.00 Build 0)  -->
<svg version="1.1" id="Glyph" xmlns="http://www.w3.org/2000/svg" xmlns:xlink="http://www.w3.org/1999/xlink" x="0px" y="0px"
	 viewBox="0 0 48 48" enable-background="new 0 0 48 48" xml:space="preserve">
<g>
	<circle cx="26.75" cy="21.75" r="0.75"/>
	<polygon points="34.02539,16.52148 35.28613,14 25.13074,14 26.02417,16.90326 	"/>
	<circle cx="32.75" cy="21.75" r="0.75"/>
	<path d="M5.25,8.25v18h37.5v-18H5.25z M10.5,12.5h9V14h-9V12.5z M11.5,18.5h8V20h-8V18.5z M20.5,23h-6v-1.5h6V23z M21.5,17h-6v-1.5
		h6V17z M25.2793,19.5H35.75V21h-0.88831C34.9458,21.23578,35,21.48578,35,21.75c0,1.24023-1.00977,2.25-2.25,2.25
		s-2.25-1.00977-2.25-2.25c0-0.26422,0.05426-0.51422,0.13837-0.75h-1.77667C28.9458,21.23578,29,21.48578,29,21.75
		c0,1.24023-1.00977,2.25-2.25,2.25s-2.25-1.00977-2.25-2.25c0-0.30225,0.06195-0.58997,0.17059-0.85358
		C23.8501,20.63605,23.25,19.8764,23.25,18.9707c0-0.84802,0.52124-1.57068,1.26447-1.8736L22.94629,12H20.5v-1.5h3.55371l0.61548,2
		h13.04468l-2.73926,5.47852l-9.71973,0.46289C24.97168,18.45508,24.75,18.6875,24.75,18.9707
		C24.75,19.2627,24.9873,19.5,25.2793,19.5z"/>
	<polygon points="18.53955,33.56 18.16455,35.06 29.83594,35.06 29.46094,33.56 	"/>
	<polygon points="16.69,36.56 15.25,38 15.25,39.75 32.75,39.75 32.75,38 31.31,36.56 	"/>
	<path d="M5.25,32.06h37.5v-4.31H5.25V32.06z M12.625,29.15497h1.5v1.5h-1.5V29.15497z M9.625,29.15497h1.5v1.5h-1.5V29.15497z
		 M6.875,29.15497h1.5v1.5h-1.5V29.15497z"/>
</g>
</svg>
