<?xml version="1.0" encoding="utf-8"?>
<!-- Generator: Adobe Illustrator 27.7.0, SVG Export Plug-In . SVG Version: 6.00 Build 0)  -->
<svg version="1.1" id="Glyph" xmlns="http://www.w3.org/2000/svg" xmlns:xlink="http://www.w3.org/1999/xlink" x="0px" y="0px"
	 viewBox="0 0 48 48" enable-background="new 0 0 48 48" xml:space="preserve">
<g>
	<polygon points="26.00446,23.3277 27.63379,25.28125 28.2334,24.99316 27.16455,22.77002 	"/>
	<polygon points="29.04688,12.04834 25.77454,16.41693 27.99426,21.03375 33.4502,21.20557 33.84424,20.50781 29.83838,12.17627 	
		"/>
	<polygon points="24.55054,17.33258 22.80371,18.17236 22.54199,18.92529 24.01709,21.99219 24.76807,22.25781 26.51477,21.41809 	
		"/>
	<path d="M30,5.25c-7.03027,0-12.75,5.71973-12.75,12.75c0,3.77002,1.64355,7.29883,4.52148,9.73145l0.3291,3.31348l3.08447-1.24219
		C26.7207,30.43164,28.33887,30.75,30,30.75c7.03027,0,12.75-5.71973,12.75-12.75S37.03027,5.25,30,5.25z M34.74316,9.78857
		l1.11621,1.00195l-2.00439,2.23193l-1.11621-1.00195L34.74316,9.78857z M34.30957,22.73389l-5.5824-0.17627l1.50818,3.13672
		l-3.00488,1.44629l-2.86273-3.43329l-1.43463-0.50714l-2.01123-4.18311l0.66992-1.92676l2.81934-1.35547l3.97949-5.3125
		l2.46045,0.39844l4.68457,9.74268L34.30957,22.73389z M35.81592,18.41992l-0.08594-1.49707l2.99512-0.17188l0.08594,1.49707
		L35.81592,18.41992z M35.36963,15.52734l-0.65039-1.35156l3.60498-1.7334l0.65039,1.35156L35.36963,15.52734z"/>
	<path d="M20.7793,34.9541c-0.67615-0.3504-1.36536-0.62744-2.05945-0.86945C17.573,35.40802,15.88452,36.25,14,36.25
		c-1.88458,0-3.573-0.84198-4.71985-2.16541c-0.69421,0.242-1.38361,0.51904-2.05994,0.86951
		C6.00488,35.58594,5.25,36.85254,5.25,38.26074V42.75h3V39h1.5v3.75h8.5V39h1.5v3.75h3v-4.49023
		C22.75,36.85254,21.99512,35.58594,20.7793,34.9541z"/>
	<circle cx="14" cy="30" r="4.75"/>
</g>
</svg>
